<svg xmlns="http://www.w3.org/2000/svg" height="857.08" width="946.373"><path d="M25.207 252.56v27.408h12.53c9.397 0 14.879-5.011 14.879-13.939 0-8.3-5.482-13.468-14.878-13.468zM2.968 233.61h33.516c24.12 0 38.998 12.373 38.998 32.733 0 13.156-6.421 23.022-17.543 28.348l34.457 48.551H65.77l-29.13-44.323H25.207v44.323H2.968V233.609M127.795 224.213l17.697-21.144h22.866l-20.362 21.144zm-21.615 9.396h63.9v18.952h-41.66v25.37h35.397v18.951H128.42v27.407h41.66v18.952h-63.9V233.609M218.164 252.56v27.408h14.878c9.398 0 15.037-5.011 15.037-13.939 0-8.3-5.64-13.468-15.037-13.468zm-22.24-18.951h36.179c24.12 0 38.84 12.373 38.84 32.733 0 20.203-14.72 32.576-38.84 32.576h-13.939v44.323h-22.24V233.609M353.953 233.609h22.238v66.719c0 28.818-16.914 46.046-44.479 46.046-27.407 0-44.321-17.228-44.321-46.046v-66.719h22.24v68.599c0 14.721 8.3 23.336 22.24 23.336 13.625 0 22.082-8.615 22.082-23.336v-68.599M426 295.629v28.66h12.527c10.337 0 16.603-5.48 16.603-14.564 0-9.083-6.266-14.096-16.603-14.096zm0-43.068v23.961h9.395c8.457 0 13.314-4.228 13.314-12.059 0-7.361-4.857-11.902-13.314-11.902zm-22.242-18.952h31.167c22.866 0 36.649 11.276 36.649 29.757 0 8.772-4.073 16.446-11.589 21.613 11.589 5.168 18.011 14.566 18.011 25.998 0 20.047-15.506 32.264-40.72 32.264h-33.518V233.609M500.71 233.609h22.238v89.429h41.66v20.203H500.71V233.609M584.188 233.609h22.24v109.632h-22.24V233.609M721.229 288.425c0-20.986-14.724-37.117-35.24-37.117-20.673 0-35.395 16.13-35.395 37.117 0 20.986 14.722 37.12 35.396 37.12 20.515 0 35.239-16.134 35.239-37.12zm30.853 62.49c2.35 0 5.48-.312 7.83-1.253v18.794c-3.602 1.41-6.735 2.036-11.59 2.036-12.215 0-23.491-5.011-34.299-14.41l-13-11.588c-4.697 1.252-9.71 1.88-15.033 1.88-34.613 0-58.262-26.626-58.262-57.949 0-31.323 23.649-57.947 58.262-57.947 34.456 0 58.105 26.624 58.105 57.947 0 18.323-8.146 35.083-21.615 45.732l6.577 6.265c8.46 7.674 15.977 10.493 23.025 10.493M830.081 233.609h22.238v66.719c0 28.818-16.914 46.046-44.479 46.046-27.407 0-44.321-17.228-44.321-46.046v-66.719h22.24v68.599c0 14.721 8.3 23.336 22.24 23.336 13.625 0 22.082-8.615 22.082-23.336v-68.599M879.886 233.609h63.901v18.952h-41.66v25.37h35.394v18.951h-35.394v27.407h41.66v18.952h-63.901V233.609M2.968 391.693h63.899v18.95h-41.66v25.373h35.397v18.952H25.207v46.357H2.968V391.693M108.687 410.644v27.408h12.53c9.397 0 14.878-5.013 14.878-13.938 0-8.301-5.481-13.47-14.877-13.47zm-22.24-18.95h33.517c24.118 0 38.998 12.372 38.998 32.732 0 13.156-6.421 23.022-17.543 28.348l34.457 48.551H149.25l-29.13-44.322h-11.434v44.322h-22.24V391.693M251.68 453.87l-15.034-41.19-15.036 41.19zm-29.6-62.177h29.13l41.503 109.632h-23.649l-10.491-28.504h-43.855l-10.493 28.504h-23.649l41.504-109.632M309.63 391.693h28.505l49.022 78.467v-78.467h22.237v109.632H380.89l-49.02-78.779v78.78h-22.24V391.692M517.62 468.593l17.54 13.468c-8.456 11.59-21.612 19.733-37.587 21.77l-13.626 22.71h-19.733l13.784-23.025c-28.506-5.01-47.298-29.13-47.298-57.007 0-31.323 23.649-57.949 58.26-57.949 19.89 0 36.178 8.928 46.2 22.24l-17.54 13.626c-6.264-8.927-16.13-15.036-28.66-15.036-20.674 0-35.396 16.133-35.396 37.12 0 20.984 14.722 37.117 35.396 37.117 12.53 0 22.396-6.107 28.66-15.034M610.968 453.87l-15.034-41.19-15.036 41.19zm-29.6-62.177H610.5l41.504 109.632h-23.65l-10.493-28.504h-43.854l-10.493 28.504h-23.649l41.504-109.632M668.92 391.693h22.239v109.632h-22.24V391.693M728.122 471.254c6.577 8.458 15.348 13.47 24.275 13.47 8.772 0 14.095-4.7 14.095-12.686 0-19.578-50.117-15.192-50.117-51.684 0-17.385 14.253-31.794 35.083-31.794 16.444 0 29.13 7.362 38.371 18.482l-16.289 14.565c-6.42-8.3-13.625-13.626-21.925-13.626-7.675 0-12.686 5.013-12.686 11.434 0 19.578 50.117 15.034 50.117 52.153-.314 20.361-16.289 32.889-36.336 32.889-18.48 0-31.01-6.735-40.721-18.324l16.133-14.88M812.385 391.693h63.9v18.95h-41.66v25.373h35.395v18.952h-35.396v27.407h41.66v18.95h-63.9V391.693M34.572 840.216l.803-2.49c-10.691-2.012-12.057-2.012-7.796-13.667l4.34-11.977h11.816c5.305 0 5.385 2.171 4.58 7.958h3.056l7.073-19.371H55.39c-2.652 4.582-4.742 7.957-10.53 7.957H33.205l6.19-16.961c1.93-5.385 3.055-6.511 10.29-6.511h5.143c7.476 0 8.36 2.012 8.36 9.566h2.973l2.493-13.184H24.282l-.804 2.493c8.6 1.769 9.405 2.573 5.386 13.666L19.22 824.06c-4.02 11.012-5.708 11.898-15.595 13.667l-.723 2.49zm61.57-32.312c1.527-5.227.724-9.808-3.295-9.808-4.744 0-5.949 3.616-10.77 13.986v-5.949c0-4.26-1.369-8.037-5.226-8.037-4.502 0-8.6 6.994-11.736 13.906h2.09c2.17-3.133 4.18-4.984 5.788-4.984 1.928 0 2.973 2.976 0 9.566l-8.681 19.291c-1.608 3.618.08 5.949 3.615 5.949 2.172 0 3.137-.563 4.02-2.894l8.522-22.586c2.41-2.976 4.58-5.547 7.313-8.44zm39.065-11.656l-3.377-.242-3.777 3.698h-.803c-18.327 0-34.163 20.578-34.163 35.528 0 4.18 2.572 6.592 6.59 6.592 4.743 0 9.405-6.753 14.63-13.988l-.241 2.575c-.642 7.393 1.607 11.413 5.466 11.413 4.501 0 8.601-6.992 11.736-13.906h-2.09c-2.17 3.135-4.18 4.983-5.787 4.983-1.69 0-2.894-3.055 0-9.566zm-33.84 33.036c0-9.887 11.012-23.309 17.2-23.309 1.366 0 2.654.158 3.779.481l-6.431 17.12c-3.698 4.504-9.405 9.968-12.058 9.968-1.527 0-2.49-1.286-2.49-4.26m40.59-24.998h7.395l-11.736 32.071c-1.045 2.734.403 5.467 3.217 5.467 6.67 0 17.441-6.592 21.22-15.595h-2.09c-2.973 3.135-8.68 7.315-13.584 8.2l10.77-30.143h11.013l1.366-4.582h-10.691l4.1-11.575h-4.26l-7.636 11.575-9.084 1.286zm52.49 22.022h-2.734c-3.456 4.103-7.153 7.315-10.852 7.315-3.777 0-5.706-2.249-5.706-7.315 0-2.087.242-4.177.642-6.106l22.266-7.314c4.341-10.29-.883-14.792-6.992-14.792-10.531 0-22.508 17.603-22.508 33.038 0 6.911 3.296 10.69 8.44 10.69 6.03 0 12.3-5.867 17.444-15.516m-7.637-22.263c2.975 0 5.547 2.25 4.18 7.957l-13.825 3.217c2.411-6.432 6.43-11.174 9.645-11.174m49.355 3.859c1.527-5.227.724-9.808-3.297-9.808-4.742 0-5.947 3.616-10.77 13.986v-5.949c0-4.26-1.367-8.037-5.225-8.037-4.501 0-8.601 6.994-11.736 13.906h2.09c2.17-3.133 4.18-4.984 5.787-4.984 1.93 0 2.975 2.976 0 9.566l-8.681 19.291c-1.607 3.618.082 5.949 3.617 5.949 2.17 0 3.135-.563 4.019-2.894l8.521-22.586c2.411-2.976 4.583-5.547 7.315-8.44zm.16 27.971c-1.608 3.618.08 5.949 3.617 5.949 2.17 0 3.135-.563 4.018-2.894l8.522-22.586c3.938-4.825 12.057-9.968 15.271-9.968 2.332 0 2.01 1.929.483 4.822l-13.102 25.16c-1.286 2.493.4 5.466 3.215 5.466 6.431 0 14.067-5.787 17.12-13.906h-2.09c-2.09 2.973-5.626 6.268-8.922 6.832l11.254-22.748c1.447-2.894 2.171-5.626 2.171-7.797 0-3.698-2.092-6.109-5.949-6.109-5.547 0-11.173 6.27-17.844 13.986v-5.949c0-4.26-1.368-8.037-5.225-8.037-2.411 0-4.742 2.09-6.914 5.064v.803c4.182-.24 6.029 6.03 3.055 12.621zm70.813-49.194c2.895 0 5.306-2.33 5.306-5.303 0-2.893-2.41-5.306-5.306-5.306-2.974 0-5.305 2.413-5.305 5.306 0 2.972 2.331 5.303 5.305 5.303m-2.25 16.078c.884-2.975-1.125-4.663-2.652-4.663-6.431 0-14.067 5.788-17.12 13.906h2.09c2.09-2.975 5.625-6.27 8.921-6.832L283.83 837.16c-1.126 2.974 1.125 4.663 2.652 4.663 6.109 0 13.262-5.867 16.317-13.906h-2.09c-2.09 2.973-5.626 6.268-8.922 6.832zm9.967 1.527h7.395l-11.736 32.071c-1.045 2.734.403 5.467 3.215 5.467 6.672 0 17.443-6.592 21.22-15.595h-2.09c-2.973 3.135-8.68 7.315-13.582 8.2l10.77-30.143h11.013l1.366-4.582h-10.691l4.1-11.575h-4.26l-7.638 11.575-9.082 1.286zm48.067-10.29l15.675-14.63v-1.687h-8.441l-9.645 16.317zm4.422 32.312h-2.734c-3.456 4.103-7.154 7.315-10.853 7.315-3.777 0-5.705-2.249-5.705-7.315 0-2.087.24-4.177.642-6.106l22.265-7.314c4.342-10.29-.883-14.792-6.992-14.792-10.53 0-22.508 17.603-22.508 33.038 0 6.911 3.296 10.69 8.441 10.69 6.029 0 12.299-5.867 17.444-15.516m-7.638-22.263c2.975 0 5.548 2.25 4.18 7.957l-13.824 3.217c2.41-6.432 6.43-11.174 9.644-11.174M50.487 677.122l15.673-10.77v-1.69h-9.484l-8.681 12.46zm-6.43 33.679c5.304 0 5.384 2.172 4.582 7.959h3.053l7.074-19.372H55.71c-2.653 4.582-4.743 7.957-10.53 7.957H33.527l5.867-16.155c1.93-5.387 3.055-6.432 10.29-6.432h5.143c7.476 0 8.36 2.01 8.36 9.485h2.973l2.493-13.18H24.282l-.804 2.49c8.6 1.77 9.405 2.573 5.386 13.665l-9.645 26.366c-4.02 11.01-5.708 11.895-15.595 13.664l-.723 2.491h49.353l8.843-13.985H57.72c-5.626 5.304-12.7 10.368-22.587 10.368-13.102 0-11.897-.563-7.555-12.538L32.24 710.8zm56.186 34.404c0-5.143-4.582-6.993-12.058-9.243-6.43-1.93-9.324-2.493-9.324-4.583 0-1.687 1.367-3.697 4.1-5.143 10.53-.562 17.362-10.049 17.362-18.006 0-1.689-.323-3.135-.885-4.42h8.922l1.368-4.584H95.581a10.943 10.943 0 00-5.707-1.605c-11.174 0-18.409 9.806-18.409 17.763 0 6.03 3.859 9.805 8.521 10.69-5.225 2.332-8.118 5.064-8.118 8.28 0 1.848.644 3.134 2.17 4.34-12.056 3.538-16.8 7.556-16.8 13.262 0 5.548 7.315 7.877 15.998 7.877 14.709 0 27.007-7.955 27.007-14.628M82.8 723.181c-2.652 0-3.697-2.251-3.697-4.822 0-7.155 3.858-17.685 9.887-17.685 2.652 0 3.697 2.25 3.697 4.824 0 7.153-3.858 17.683-9.887 17.683m-16.64 25.963c0-4.26 4.1-6.912 9.97-9.243 1.928.965 4.821 2.008 8.678 3.296 6.11 2.008 8.442 2.814 8.442 4.66 0 3.941-6.671 6.913-15.755 6.913-7.636 0-11.335-1.606-11.335-5.626m81.828-53.374l-3.377-.24-3.777 3.696h-.803c-18.327 0-34.163 20.579-34.163 35.53 0 4.18 2.572 6.59 6.592 6.59 4.743 0 9.405-6.752 14.628-13.987l-.24 2.574c-.643 7.395 1.608 11.414 5.465 11.414 4.501 0 8.601-6.992 11.736-13.906h-2.09c-2.17 3.135-4.18 4.983-5.787 4.983-1.687 0-2.894-3.053 0-9.564zm-33.84 33.037c0-9.886 11.012-23.309 17.202-23.309 1.366 0 2.652.161 3.777.48l-6.43 17.121c-3.699 4.503-9.404 9.97-12.059 9.97-1.525 0-2.49-1.289-2.49-4.262m42.6 5.466l22.427-58.758-.723-.884-14.068 1.606v1.689l2.734 2.09c2.493 1.928 1.688 3.779-.562 9.728l-17.523 46.138c-1.287 2.491.4 5.465 3.214 5.465 6.432 0 13.264-5.788 16.317-13.906h-2.09c-2.09 2.973-6.43 6.271-9.726 6.832m42.765-48.069a5.298 5.298 0 005.304-5.303c0-2.893-2.41-5.306-5.304-5.306a5.302 5.302 0 00-5.307 5.306c0 2.974 2.331 5.303 5.307 5.303m-2.252 16.078c.884-2.976-1.125-4.661-2.652-4.661-6.432 0-14.067 5.787-17.123 13.904h2.09c2.09-2.972 5.628-6.27 8.923-6.83l-12.299 31.99c-1.125 2.973 1.127 4.662 2.654 4.662 6.109 0 13.262-5.868 16.317-13.906h-2.09c-2.09 2.973-5.627 6.271-8.922 6.832zm9.966 1.527h7.396l-11.736 32.073c-1.045 2.732.401 5.465 3.215 5.465 6.672 0 17.443-6.591 21.22-15.593h-2.09c-2.973 3.133-8.68 7.314-13.584 8.198l10.77-30.143h11.014l1.367-4.583h-10.691l4.098-11.574h-4.26l-7.636 11.574-9.083 1.288zm48.067-10.29l15.674-14.628v-1.689h-8.44l-9.645 16.317zm4.42 32.316h-2.731c-3.456 4.098-7.156 7.313-10.851 7.313-3.779 0-5.71-2.25-5.71-7.313 0-2.092.244-4.182.645-6.11l22.265-7.315c4.342-10.29-.885-14.79-6.993-14.79-10.53 0-22.506 17.602-22.506 33.037 0 6.912 3.295 10.69 8.438 10.69 6.03 0 12.299-5.868 17.444-15.512m-7.636-22.267c2.973 0 5.546 2.25 4.18 7.957l-13.826 3.216c2.41-6.43 6.431-11.173 9.646-11.173M53.381 580.585h-29.26l-.803 2.491c8.601 1.77 9.405 2.573 5.385 13.665l-9.484 26.366c-4.02 11.012-5.708 11.895-15.595 13.664l-.723 2.493h44.531l9.646-17.204h-3.376c-5.466 6.03-11.896 13.586-21.783 13.586-7.476 0-8.36-1.288-4.34-12.54l9.483-26.365c3.94-11.012 5.708-11.896 15.595-13.665zm32.393 5.144a5.3 5.3 0 005.304-5.305c0-2.894-2.41-5.306-5.304-5.306a5.3 5.3 0 00-5.305 5.306c0 2.974 2.33 5.305 5.305 5.305m-2.252 16.075c.885-2.971-1.125-4.66-2.652-4.66-6.432 0-14.067 5.787-17.12 13.905h2.09c2.087-2.973 5.625-6.27 8.92-6.832L62.46 636.21c-1.123 2.975 1.127 4.66 2.654 4.66 6.109 0 13.262-5.867 16.317-13.904h-2.09c-2.09 2.972-5.626 6.27-8.922 6.833zm43.728 4.262c0-6.511-2.413-8.922-6.914-8.922-5.626 0-10.933 5.948-16.237 13.182l13.423-35.287-.722-.885-14.067 1.608v1.687l2.732 2.09c2.493 1.93 1.689 3.94-.563 9.727l-14.468 37.297c-1.045 2.732-2.331 5.948-2.331 6.832 0 3.859 5.225 7.474 9.967 7.474 10.932 0 29.18-19.691 29.18-34.803m-25.321 28.292c-2.172 0-5.305-2.008-5.305-3.775 0-.564.964-3.055 2.17-6.19l3.618-9.566c3.857-4.581 9.725-9.485 13.022-9.485 2.008 0 3.536 1.286 3.536 4.261 0 8.76-8.199 24.755-17.041 24.755m54.578-9h-2.734c-3.456 4.098-7.153 7.315-10.85 7.315-3.78 0-5.708-2.252-5.708-7.315 0-2.09.241-4.18.644-6.11l22.266-7.315c4.34-10.288-.886-14.79-6.994-14.79-10.531 0-22.507 17.604-22.507 33.037 0 6.914 3.295 10.69 8.44 10.69 6.028 0 12.298-5.868 17.443-15.512m-7.638-22.266c2.976 0 5.548 2.25 4.18 7.957l-13.824 3.215c2.411-6.431 6.43-11.172 9.644-11.172m49.356 3.857c1.527-5.223.723-9.805-3.297-9.805-4.742 0-5.947 3.617-10.77 13.985v-5.947c0-4.261-1.367-8.038-5.226-8.038-4.5 0-8.599 6.992-11.736 13.905h2.09c2.172-3.135 4.18-4.983 5.788-4.983 1.93 0 2.975 2.973 0 9.564l-8.681 19.292c-1.608 3.618.081 5.947 3.617 5.947 2.17 0 3.135-.562 4.019-2.893l8.52-22.585c2.412-2.975 4.584-5.548 7.316-8.442zm5.785-3.617h5.869l-11.736 32.073c-1.045 2.732.4 5.464 3.216 5.464 6.671 0 17.442-6.59 21.22-15.593h-2.089c-2.975 3.137-8.683 7.315-13.586 8.2l10.77-30.144h11.014l1.367-4.581h-10.691l4.1-11.575h-4.262l-7.636 11.575-7.556 1.286zm46.059-10.288l15.674-14.63v-1.687h-8.44l-9.647 16.317zm4.42 32.314h-2.733c-3.456 4.098-7.153 7.315-10.85 7.315-3.778 0-5.708-2.252-5.708-7.315 0-2.09.241-4.18.642-6.11l22.266-7.315c4.341-10.288-.884-14.79-6.992-14.79-10.53 0-22.507 17.604-22.507 33.037 0 6.914 3.294 10.69 8.44 10.69 6.028 0 12.298-5.868 17.441-15.512m-7.634-22.266c2.973 0 5.546 2.25 4.178 7.957l-13.824 3.215c2.411-6.431 6.43-11.172 9.646-11.172" fill="#231f20"/><path d="M120.006 119.556c-.274-.276.826 0 1.1-.55h-2.199c-.276 0-.276-.276-.276-.552-1.376.276-3.025.826-4.402 1.102-1.925.548-3.576 1.925-5.777 2.475-3.025 1.1-5.5 3.576-8.802 4.676-.274 0-.274-.274-.274-.55.274-.826 1.374-1.1 1.925-1.927 0-.274 0-.548-.276-.548 2.2-3.027 5.228-4.676 7.977-7.154v-.824c.827-1.1 2.202-1.65 2.752-3.027.276-.825 1.375-1.925 2.751-2.476-.276-.274-.826-.274-.826-.824-1.099 0-2.2.55-3.302-.276.514-.512 1.104-.795 1.727-.977a.993.993 0 01-.624-.398c-.276-.55.53-1.165 1.374-1.375 1.1-.276 2.476-.276 3.302-1.102-1.927-.274-4.126.552-6.053-.549 1.377-3.577 3.576-6.603 6.877-8.252.275 0 .827 0 .827.275 0 1.374-.827 2.475-2.201 2.75 2.2.551 4.4.551 6.601 1.65-.274.55-.826.276-1.1.276 1.376.824 3.027.274 4.402 1.376-.827.825-1.651 0-2.476 0 8.528 2.474 17.605 4.4 24.757 9.902-6.051 3.027-12.378 4.402-18.98 5.777-.826 0-1.376 0-2.2-.275 0 .275 0 .827-.277.827-1.099 0-1.925 0-2.75.55-1.1.548-2.75.824-3.577 0zm-5.633 19.136l-.068.047c-1.03.725-2.057 1.465-3.141 2.095-1.177.682-2.408 1.2-3.63 1.78a.268.268 0 00-.035-.065.36.36 0 00-.463-.111c-1.042.562-1.929 1.307-2.77 2.109-.13.121-.256.244-.383.37l-.022.02-.02.021c-.133.13-.263.259-.391.39-.018.014-.032.03-.047.046-.009.008-.009.017-.018.026-.194.194-.385.39-.599.642-.137.163-.184.264-.366.385-.172.113-.644.111-.6-.206l.003-.054c-.163.087-.325.172-.488.25-.15.073-.29.154-.43.236a.46.46 0 00-.19-.028.344.344 0 00-.197.068c-.337.264-.67.543-.995.837a13.918 13.918 0 00-1.595 1.697c-.01.007-.018.016-.026.025l-.054.076c-.026.036-.056.071-.082.108-.03.038-.059.074-.086.112-.01.013-.02.023-.028.035-.066.089-.123.182-.188.273l-.01.017a.423.423 0 01-.226.108c-.036-.056-.074-.108-.11-.165-.027-.042-.051-.087-.077-.132a8.145 8.145 0 01-.235-.441c-.001-.005-.005-.01-.006-.016a4.935 4.935 0 01-.066-.137c.298-.321.586-.65.864-.99l.054-.067c.097-.116.193-.234.286-.354.156-.194.31-.39.462-.587l.168-.219c.302-.394.59-.777.86-1.16.007-.011.013-.022.02-.03l.118-.174c.132-.194.26-.392.377-.592.108-.179.208-.36.302-.548l.021-.04.03-.058c.017-.033.029-.069.045-.102.097-.208.184-.422.262-.642l.024-.071c.02-.06.042-.118.06-.18.032-.1.06-.2.088-.303v-.002l.015-.066c.033-.133.07-.265.096-.404a.275.275 0 00-.033-.186 8.77 8.77 0 011.09-1.484c-.04.024-.087.047-.127.071-.392.254-.654.608-1.02.882-.3.224-.853-.146-.497-.411.241-.18.425-.379.625-.568.012-.016.016-.03.03-.043.452-.448.886-1.021 1.402-1.398.316-.23.592-.423.847-.645.042-.035.082-.073.12-.11.19-.253.4-.48.616-.694.01-.009.017-.02.03-.028 2.631-2.54 7.064-2.428 10.536-4.048 1.375-.55 3.026.276 4.402 0 .825 0 1.65 0 2.474.55-2.47 1.35-4.755 2.868-7.008 4.283zm4.93 2.272c-.125.302-.405.562-.679.804.344.069.585.22.363.425-.637.585-1.246 1.172-2.085 1.454a2.23 2.23 0 01-.422.058c-.336.326-.677.65-1.027.961-.326.289-1.838.08-1.377-.33.7-.617 1.346-1.29 2.035-1.92.389-.355.8-.695 1.144-1.095.19-.222.349-.439.59-.609.225-.16 1.68-.288 1.458.252zm-12.776-41.216c-.274.55-.58.61-.824 1.1-.276.55-.55.825-1.1 1.101-.277 0-.553 0-.553-.276.276-1.099 1.102-2.2 2.203-2.475.274 0 .274.276.274.55zm-22.833 18.155s-.274-.274-.274-.548c3.576-4.678 6.327-9.079 8.802-14.03 3.578-1.926 6.544-4.73 9.355-7.703 4.676-4.952 9.627-9.353 15.403-12.104 2.201-.824 4.953-.55 7.154.276-.826 1.099-2.201.825-3.302 1.65-.276 0-.55 0-.826-.275.276-.276.276-.55.276-.826-2.751 3.027-6.603 4.402-8.802 7.978-1.651 2.75-2.752 6.327-6.328 7.153-1.102.274.275-.826-.276-.55-8.528 5.226-14.579 11.553-21.182 18.98zm42.089 6.053c-.549 0-1.65.274-1.375-.274.274-1.377 2.201-1.377 3.3-1.927.552-.274 1.376-.824 1.927-.55.55.826 1.374.55 1.926 1.1-1.652 1.651-3.853.827-5.778 1.651zm42.304 19.707c1.562-1.564 3.14-3.24 4.707-4.924h-.034c2.925-3.307 5.787-6.461 9.175-9.365 1.033-.922 2.035-1.734 2.993-2.392.274-.275.274-.825.55-1.1-1.375.551-2.2 1.65-3.576 2.2-.276 0-.55-.274-.276-.55.981-.734 1.96-1.469 2.94-2.205-.06.004-.126.004-.188.004-.275 0-.275-.274-.275-.55-3.577-.55-6.327 1.926-8.804 4.127-.55.275-1.1-.276-1.374-.276-4.127 1.377-7.154 4.953-11.28 6.604v-.552c-1.65.552-3.253 1.55-4.95 1.926-2.478.55-4.679.276-6.88.276-3.332.332-6.667 1.068-10.002 1.78-.095.026-.192.046-.288.073a23.252 23.252 0 00-5.126 2.063 3.259 3.259 0 00-.185.11c-.14.172-.273.337-.4.475-.592.651-1.102 1.247-1.886 1.648-1.691.859-3.071 2.357-4.562 3.574-.108.087-.271.13-.441.139-1.476 1.416-2.932 2.852-4.43 4.242-.106.097-.533.151-.84.1.007-.01.017-.015.022-.025.054-.087.106-.176.16-.262a71.052 71.052 0 011.52-2.44c.376-.567.761-1.13 1.17-1.674.108-.14.079-.268-.008-.361a.533.533 0 00-.38-.143c1.371-1.331 3.003-2.466 4.617-3.445l-.002-.047c-.182.062-.45-.084-.31-.278.173-.243.31-.502.474-.75l.088-.245-.208-.217c-.443.29-.917.565-1.293.903-.658.594-1.174 1.807-2.172 1.795-.066 0-.26-.01-.417-.06a.807.807 0 01-.29-.096l.037-.065c.012-.026.028-.05.042-.076.012-.024.026-.047.04-.071a7.97 7.97 0 01.13-.236l.13-.238c.036-.062.07-.127.106-.19.066-.117.128-.234.194-.35l.146-.248c.116-.203.234-.404.354-.608.058-.097.113-.194.17-.291.1-.167.193-.335.292-.5.137-.23-.005-.417-.207-.491a6.292 6.292 0 011.884-1.642h-.082c1.052-.53 2.106-1.176 3.16-1.768.15-.13.301-.263.454-.392-1.57.526-2.98 1.241-4.376 2.16 0 0-.363.147-.465.25 0 0-.316.12-.686-.25a.319.319 0 01-.066-.204c.276-.55 1.1-.824 1.651-1.374.276 0 .55 0 .55.274 8.803-6.877 20.907-5.225 31.086-8.803l2.475-1.65c1.375-.549 2.475-1.925 4.126-2.752 2.201-1.649 3.852-3.575 4.676-6.327 0-.274-.274-.548-.274-.548a42.429 42.429 0 01-12.104 9.078c-5.777 3.026-12.104 2.475-18.157 3.3.276-.55.827-.55 1.377-.55 0-.827.55-1.1 1.1-1.651h.825c.276 0 .276-.55.55-.55.55 0 1.377-.275 1.1-.275-.824-1.1-2.475.825-3.85 0 .55-.55.275-1.376.825-1.65h1.099c0-.55.552-1.1.552-1.1 4.126-2.476 7.978-4.401 11.828-6.602-.825 0-1.375.824-2.201.274.552 0 0-.825.552-.825 3.025-.826 5.5-2.477 8.526-3.575-1.1 0-1.925.824-3.025 0 .55-.276.824-.827 1.65-.827v-.824c0-.276.275-.276.55-.276-.275 0-.55-.274-.55-.274.275-.55 1.101-.276 1.65-.827-.275 0-.825 0-.825-.274.825-1.1 2.201-1.376 3.576-1.65-.274-.55-1.1 0-1.1-.55 0-.277.275-.277.55-.277h-.55c-.55-.274-.275-.824-.275-1.099 1.65-1.927 1.65-4.402 2.475-6.603-.276 0-.55 0-.55-.274-2.751 3.025-7.152 4.126-11.278 5.226h-1.376c-1.375.549-3.302.549-4.676-.276-1.1-.55-1.651-1.374-2.752-2.2-2.2-1.375-4.4-2.476-6.877-3.3-6.876-2.201-14.03-3.302-21.18-3.028 3.025-1.649 6.363-1.79 9.628-2.75 4.676-1.376 9.077-3.025 14.029-2.75-.825-.275-1.925 0-2.751 0-3.85-.275-7.702.824-11.83 1.65-2.75.55-5.225 1.651-7.976 2.201-1.651.549-2.477 2.201-4.402 1.925v-.826c2.75-3.3 6.05-6.601 10.453-6.877 4.952-.825 9.629 0 14.58.55 3.575.276 6.877 1.102 10.452 1.927 1.377 0 1.653 2.2 2.753 2.475 1.65.55 3.3 0 4.951 1.1 0-.55-.274-1.1 0-1.65 1.1-1.1 2.475.276 3.576-.275 2.2-1.376-1.925-3.851-3.026-5.776 0-.275.274-.55.274-.55 2.202 1.924 3.852 4.125 6.604 5.5 1.374.55 4.676 1.377 4.126-.274-1.375-3.027-4.126-5.503-6.327-8.252v-1.102c-.55 0-.55-.275-.825-.549v-1.1c-1.1-.55-.826-1.651-1.376-2.478-.825-1.374-.275-3.3-.825-4.95-.55-1.65-.826-3.026-1.1-4.676-.825-4.677-1.926-8.803-2.478-13.205-.548-5.227 3.028-9.353 5.503-14.03 1.927-3.3 4.126-6.602 7.702-8.803.826-3.302 3.027-6.051 5.228-8.803 2.196-2.685 5.847-4.32 8.492-5.5a73.056 73.056 0 017.311-2.792H2.586v145.575h133.697c5.237-3.77 10.469-5.562 17.778-9.164 3.451-1.701 11.35-5.329 14.026-8.004" fill="#000091"/><path d="M402.914 15.256H246.318c.001 0 .295.049 1.487.688 1.27.682 2.916 1.562 3.951 2.104 2.017 1.055 3.98 2.378 5.246 4.4.55.826 1.374 2.475.824 3.576-.55 1.376-.824 3.577-2.2 4.127-1.65.825-3.853.825-5.778.55-1.1 0-2.2-.275-3.3-.55 4.127 1.65 7.977 3.576 10.728 7.428.276.549 1.375.825 2.475.825.276 0 .276.55.276.824-.55.552-1.1.826-.826 1.651h.826c1.375-.55 1.1-3.3 3.026-2.475 1.376.824 1.925 2.75 1.1 4.126-1.1 1.1-2.2 1.925-3.301 2.751-.274.55-.274 1.375 0 1.925.826 1.1 1.1 2.201 1.375 3.302.826 1.925 1.102 4.126 1.926 6.05 1.1 4.129 2.201 8.255 1.925 12.38 0 2.202-1.1 4.127-.274 6.328.55 2.2 1.925 3.852 3.026 5.777 1.1 1.65 2.2 2.751 3.025 4.4 1.651 2.751 4.677 5.503 3.302 8.804-.825 1.925-3.852 1.65-5.777 2.752-1.65 1.374-.276 3.575.55 4.95 1.375 2.475-1.65 4.126-3.576 4.953.549.824 1.651.548 1.925 1.098.275 1.377 1.651 2.201.825 3.578-1.099 1.65-4.4 2.475-2.75 4.95 1.1 1.926.387 4.066-.276 6.053-.824 2.476-3.025 3.576-4.95 4.126-1.651.55-3.576.55-5.229.275-.548-.275-1.098-.549-1.649-.549-4.678-.552-9.352-1.927-14.03-1.927-1.375.275-2.75.55-3.85 1.1a24.34 24.34 0 00-3.332 2.945 23.84 23.84 0 00-.986 1.125c-.078.093-.157.189-.234.284a26.016 26.016 0 00-2.166 3.17l-.122.21a26.497 26.497 0 00-2.295 5.431c-1.869 6.302-1.051 11.705.26 13.018.365.364 9.081 3.056 15.151 5.756 2.847 1.267 4.84 2.242 6.492 3.286h153.776V15.256" fill="#ed1c24"/><path d="M255.632 68.362c1.1.276 2.751.276 2.751.827-.55 2.199-3.853 2.75-5.502 4.952h-.826c-.825.549-.549 1.925-1.375 1.925-.826-.276-1.653 0-2.476.274 1.101 1.1 2.476 1.927 4.127 1.651.276 0 .824.552.824 1.102 0 0 .276 0 .55-.277.276 0 .552 0 .552.277v1.1c-.826 1.1-2.202.55-3.303.825 2.201.55 4.402.55 6.327 0 1.653-.55 0-3.301 1.102-4.678-.55 0 0-.824-.55-.824.55-.55 1.1-1.375 1.65-1.65.551 0 1.376-.275 1.65-.827 0-.549-1.099-.825-.825-1.375 1.651-1.1 3.026-2.751 2.478-4.402-.276-.825-2.478-.825-3.852-1.375-1.377-.55-3.028 0-4.677.274-1.376 0-2.751.827-4.127 1.101-1.926.55-3.576 1.65-5.227 2.751 1.927-.824 3.852-1.1 6.051-1.65 1.653 0 3.053-.407 4.678 0" fill="#918f90"/></svg>