<svg xmlns="http://www.w3.org/2000/svg" xmlns:xlink="http://www.w3.org/1999/xlink" width="156" height="46" viewBox="0 0 156 46"><defs><path id="d62ra" d="M154.6 41c.37-.2.97-.37 1.4-.37v-1.97c-1.05.03-2 .31-2.63 1.2h-.04v-.93h-1.8v10.22h1.93v-5.59c0-.92.23-2.1 1.14-2.56zm-4.4-.31v-1.76h-1.8v-.5c0-1 1-1.18 1.8-1.18V35.5c-1 0-1.63 0-2.51.56-.88.55-1.23 1.36-1.23 2.38v.5h-.92v1.75h.92v8.46h1.94V40.7zm-8.83 8.46h1.94V46.9h-1.94zm-20.95-33.03l12.33-6.61-2.41-4.39-12.22 6.93zm-5.86 16.2c.27-4.4 4.33-8.78 9.8-8.78 5.48 0 9.54 4.38 9.81 8.77zm25.14 4.33c.06-.38.17-1.9.17-2.88a15.5 15.5 0 0 0-31 .38c0 8.5 6.84 15.82 15.44 15.82 4.71 0 11.67-2.44 14.57-10.18h-5.7a9.71 9.71 0 0 1-8.65 5.03c-3.83 0-8.55-2.38-9.97-8.17zm-37.04-12.3h4.98V19.2h-4.98V9.13h-5.7V19.2h-4.1v5.15h4.1V49.2h5.7zM90.4 49.2V31.45c-.06-3.36-.72-5.75-1.92-7.7-2.2-3.35-6.03-5.36-10.74-5.36-1.2 0-5.8 0-8.87 4h-.11V19.2h-5.31v30.01h5.7V32.85c0-6 3.23-9.31 8-9.31 7.55 0 7.55 7.04 7.55 9.37v16.3zM42.46 23.54c5.86 0 10.52 4.33 10.52 10.72 0 5.74-4.6 10.56-10.57 10.56-6.03 0-10.35-5.14-10.35-10.56 0-4.71 3.4-10.72 10.4-10.72zm16.1 25.67v-30h-5.69v4.22h-.1c-2.2-3.3-6.09-5.04-10.3-5.04-10.9 0-16.11 8.61-16.11 15.93 0 7.9 5.86 15.65 16.1 15.65 4.11 0 8.11-1.73 10.3-5.42h.11v4.66z"/><path id="d62rb" d="M20.2 12.24a11.88 11.88 0 0 0-16.74.02A11.8 11.8 0 0 0 0 20.59a11.8 11.8 0 0 0 11.83 11.78l-5.2-7.96a6.25 6.25 0 0 1-1.23-3.28l-.01-.15a4.53 4.53 0 0 1-.01-.4 6.31 6.31 0 0 1 1.9-4.55 6.37 6.37 0 0 1 4.55-1.87c1.82 0 3.38.72 4.55 1.87a6.35 6.35 0 0 1 1.9 4.52h5.38a11.8 11.8 0 0 0-3.47-8.3"/><path id="d62rc" d="M14.25 20.59a2.41 2.41 0 1 1-4.83-.01 2.41 2.41 0 0 1 4.83 0"/><path id="d62rd" d="M20.2 30.46a11.89 11.89 0 0 0-5.17-3.01l-3.2 4.91c1.83 0 3.4.72 4.56 1.88a6.31 6.31 0 0 1 1.89 4.55c0 1.82-.72 3.38-1.89 4.54a6.37 6.37 0 0 1-4.56 1.88 6.33 6.33 0 0 1-6.45-6.34H0a11.74 11.74 0 0 0 11.83 11.72 11.8 11.8 0 0 0 8.36-20.13"/></defs><g><g transform="translate(0 -5)"><use fill="#006dff" xlink:href="#d62ra"/></g><g transform="translate(0 -5)"><use fill="#1bb61e" xlink:href="#d62rb"/></g><g transform="translate(0 -5)"><use fill="#1bb61e" xlink:href="#d62rc"/></g><g transform="translate(0 -5)"><use fill="#006dff" xlink:href="#d62rd"/></g></g></svg>